<svg width="296" height="88" viewBox="0 0 296 88" fill="none" xmlns="http://www.w3.org/2000/svg">
<g filter="url(#filter0_d_1141_231110)">
<rect x="12" y="6" width="272" height="48.001" rx="8" fill="#FC4C02"/>
<rect x="70" y="6" width="156" height="48.001" rx="8" fill="#FC4C02"/>
<path d="M90.732 36V24.64H94.94C96.2627 24.64 97.2493 24.9867 97.9 25.68C98.5613 26.3627 98.892 27.2747 98.892 28.416C98.892 29.632 98.5187 30.5547 97.772 31.184C97.0253 31.8027 96.0067 32.112 94.716 32.112H92.956V36H90.732ZM92.956 30.128H94.476C95.1587 30.128 95.676 29.9733 96.028 29.664C96.38 29.344 96.556 28.9173 96.556 28.384C96.556 27.84 96.3853 27.4133 96.044 27.104C95.7133 26.7947 95.228 26.64 94.588 26.64H92.956V30.128ZM103.679 36.144C102.591 36.144 101.695 35.7707 100.991 35.024C100.298 34.2773 99.9514 33.3067 99.9514 32.112C99.9514 30.9387 100.298 29.9733 100.991 29.216C101.695 28.448 102.575 28.064 103.631 28.064C104.602 28.064 105.37 28.4053 105.935 29.088L105.967 29.072V28.176H108.063V36H106.063V35.072L106.031 35.056C105.466 35.7813 104.682 36.144 103.679 36.144ZM104.079 34.256C104.634 34.256 105.103 34.0587 105.487 33.664C105.871 33.2693 106.063 32.7573 106.063 32.128C106.063 31.4987 105.871 30.976 105.487 30.56C105.114 30.144 104.645 29.936 104.079 29.936C103.503 29.936 103.023 30.1387 102.639 30.544C102.266 30.9387 102.079 31.4667 102.079 32.128C102.079 32.7573 102.266 33.2693 102.639 33.664C103.013 34.0587 103.493 34.256 104.079 34.256ZM113.592 39.296C112.376 39.296 111.309 39.0347 110.392 38.512L110.888 36.736C111.762 37.2267 112.61 37.472 113.432 37.472C114.125 37.472 114.664 37.3067 115.048 36.976C115.432 36.6453 115.624 36.2347 115.624 35.744V34.96H115.592C115.016 35.5573 114.258 35.856 113.32 35.856C112.242 35.856 111.352 35.4987 110.648 34.784C109.944 34.0693 109.592 33.1467 109.592 32.016C109.592 30.864 109.933 29.92 110.616 29.184C111.298 28.4373 112.162 28.064 113.208 28.064C114.146 28.064 114.93 28.3733 115.56 28.992H115.592V28.176H117.688V35.104C117.688 37.8987 116.322 39.296 113.592 39.296ZM112.28 33.424C112.653 33.7867 113.128 33.968 113.704 33.968C114.28 33.968 114.749 33.7813 115.112 33.408C115.485 33.024 115.672 32.5333 115.672 31.936C115.672 31.3493 115.485 30.8747 115.112 30.512C114.738 30.1387 114.269 29.952 113.704 29.952C113.117 29.952 112.637 30.1387 112.264 30.512C111.901 30.8853 111.72 31.3653 111.72 31.952C111.72 32.56 111.906 33.0507 112.28 33.424ZM122.961 36.144C121.873 36.144 120.977 35.7707 120.273 35.024C119.579 34.2773 119.233 33.3067 119.233 32.112C119.233 30.9387 119.579 29.9733 120.273 29.216C120.977 28.448 121.857 28.064 122.913 28.064C123.883 28.064 124.651 28.4053 125.217 29.088L125.249 29.072V28.176H127.345V36H125.345V35.072L125.313 35.056C124.747 35.7813 123.963 36.144 122.961 36.144ZM123.361 34.256C123.915 34.256 124.385 34.0587 124.769 33.664C125.153 33.2693 125.345 32.7573 125.345 32.128C125.345 31.4987 125.153 30.976 124.769 30.56C124.395 30.144 123.926 29.936 123.361 29.936C122.785 29.936 122.305 30.1387 121.921 30.544C121.547 30.9387 121.361 31.4667 121.361 32.128C121.361 32.7573 121.547 33.2693 121.921 33.664C122.294 34.0587 122.774 34.256 123.361 34.256ZM129.337 36V28.176H131.433V29.312H131.465C132.084 28.48 132.868 28.064 133.817 28.064H133.977V30.352C133.828 30.3413 133.641 30.336 133.417 30.336C132.788 30.336 132.297 30.528 131.945 30.912C131.604 31.2853 131.433 31.776 131.433 32.384V36H129.337ZM142.999 36.144C141.826 36.144 140.861 35.7707 140.103 35.024C139.346 34.2773 138.967 33.3067 138.967 32.112C138.967 30.9067 139.346 29.9307 140.103 29.184C140.861 28.4373 141.847 28.064 143.063 28.064C143.703 28.064 144.317 28.1867 144.903 28.432C145.49 28.6667 145.981 29.0133 146.375 29.472L144.999 30.768C144.551 30.2133 143.954 29.936 143.207 29.936C142.578 29.936 142.066 30.1387 141.671 30.544C141.287 30.9387 141.095 31.456 141.095 32.096C141.095 32.7467 141.287 33.2693 141.671 33.664C142.066 34.0587 142.578 34.256 143.207 34.256C143.975 34.256 144.589 33.9733 145.047 33.408L146.407 34.72C145.639 35.6693 144.503 36.144 142.999 36.144ZM151.581 36.144C150.343 36.144 149.341 35.7653 148.573 35.008C147.805 34.2507 147.421 33.28 147.421 32.096C147.421 30.9227 147.805 29.9573 148.573 29.2C149.341 28.4427 150.343 28.064 151.581 28.064C152.797 28.064 153.789 28.4373 154.557 29.184C155.335 29.9307 155.725 30.9013 155.725 32.096C155.725 33.2907 155.335 34.2667 154.557 35.024C153.789 35.7707 152.797 36.144 151.581 36.144ZM151.581 34.256C152.146 34.256 152.621 34.0533 153.005 33.648C153.399 33.2427 153.597 32.7253 153.597 32.096C153.597 31.456 153.405 30.9387 153.021 30.544C152.637 30.1387 152.157 29.936 151.581 29.936C150.983 29.936 150.493 30.144 150.109 30.56C149.735 30.9653 149.549 31.4773 149.549 32.096C149.549 32.7147 149.735 33.232 150.109 33.648C150.493 34.0533 150.983 34.256 151.581 34.256ZM157.368 36V28.176H159.464V29.184H159.496C160.125 28.4373 160.957 28.064 161.992 28.064C163.88 28.064 164.824 29.1627 164.824 31.36V36H162.728V31.888C162.728 31.1733 162.605 30.672 162.36 30.384C162.115 30.0853 161.736 29.936 161.224 29.936C160.68 29.936 160.248 30.1227 159.928 30.496C159.619 30.8587 159.464 31.3867 159.464 32.08V36H157.368Z" fill="white"/>
<path fill-rule="evenodd" clip-rule="evenodd" d="M204.749 21.873C204.739 19.5942 202.888 17.75 200.607 17.75C200.04 17.75 199.485 17.8577 199.008 18.07L183.914 24.48C181.763 25.3898 180.25 27.5216 180.25 30.0002V38.1075C180.25 40.395 182.104 42.25 184.393 42.25C184.973 42.25 185.525 42.1299 186.027 41.9143L201.057 35.5327C203.223 34.629 204.75 32.4901 204.75 30.0002L204.749 21.873Z" fill="white"/>
<path fill-rule="evenodd" clip-rule="evenodd" d="M190.863 33.2635C190.687 33.2635 190.544 33.1055 190.544 32.9106V25.4548C190.544 25.2598 190.687 25.1016 190.863 25.1016C191.039 25.1016 191.182 25.2598 191.182 25.4548V32.9106C191.182 33.1055 191.039 33.2635 190.863 33.2635Z" fill="#FC4C02" stroke="#FC4C02" stroke-width="0.3"/>
<path fill-rule="evenodd" clip-rule="evenodd" d="M193.633 32.929V27.0995C193.633 26.9022 193.49 26.7422 193.313 26.7422C193.138 26.7422 192.995 26.9022 192.995 27.0995V32.929C192.995 33.1264 193.138 33.2865 193.313 33.2865C193.49 33.2865 193.633 33.1264 193.633 32.929Z" fill="#FC4C02" stroke="#FC4C02" stroke-width="0.3"/>
<path fill-rule="evenodd" clip-rule="evenodd" d="M193.633 25.4294V25.4111C193.633 25.2402 193.49 25.1016 193.313 25.1016C193.138 25.1016 192.995 25.2402 192.995 25.4111V25.4294C192.995 25.6004 193.138 25.7388 193.313 25.7388C193.49 25.7388 193.633 25.6004 193.633 25.4294Z" fill="#FC4C02" stroke="#FC4C02" stroke-width="0.3"/>
<path fill-rule="evenodd" clip-rule="evenodd" d="M188.649 32.476C188.79 32.3365 188.79 32.1101 188.649 31.9707C188.509 31.8309 188.281 31.8309 188.141 31.9707C187.101 33.0006 185.411 33.0006 184.372 31.9707C183.333 30.9393 183.333 29.2622 184.372 28.2316C184.875 27.7324 185.545 27.4574 186.256 27.4574C186.968 27.4574 187.637 27.7324 188.14 28.2316C188.281 28.3715 188.509 28.3715 188.649 28.2316C188.79 28.0917 188.79 27.8657 188.649 27.7259C188.01 27.0915 187.16 26.7422 186.256 26.7422C185.352 26.7422 184.502 27.0915 183.862 27.7259C182.543 29.0353 182.543 31.1659 183.862 32.476C184.523 33.1309 185.389 33.458 186.256 33.458C187.123 33.458 187.989 33.1309 188.649 32.476Z" fill="#FC4C02" stroke="#FC4C02" stroke-width="0.3"/>
<path fill-rule="evenodd" clip-rule="evenodd" d="M196.161 34.719V30.0932C196.161 28.6389 197.347 27.4555 198.805 27.4555C200.262 27.4555 201.448 28.6389 201.448 30.0932C201.448 31.5478 200.262 32.7307 198.805 32.7307C197.964 32.7307 197.395 32.4103 197.391 32.4084C197.221 32.3088 197.002 32.3652 196.902 32.5353C196.802 32.7056 196.859 32.9239 197.029 33.024C197.059 33.0411 197.76 33.4442 198.805 33.4442C200.656 33.4442 202.162 31.9409 202.162 30.0932C202.162 28.2454 200.656 26.7422 198.805 26.7422C196.953 26.7422 195.446 28.2454 195.446 30.0932V34.719C195.446 34.9157 195.607 35.0757 195.804 35.0757C196.001 35.0757 196.161 34.9157 196.161 34.719Z" fill="#FC4C02" stroke="#FC4C02" stroke-width="0.3"/>
<path fill-rule="evenodd" clip-rule="evenodd" d="M204.687 37.0841C204.687 37.6529 204.226 38.1136 203.657 38.1136C203.089 38.1136 202.628 37.6529 202.628 37.0841C202.628 36.5154 203.089 36.0547 203.657 36.0547C204.226 36.0547 204.687 36.5154 204.687 37.0841ZM204.525 37.0841C204.525 36.6007 204.135 36.2054 203.657 36.2054C203.18 36.2054 202.793 36.6007 202.793 37.0841C202.793 37.5676 203.18 37.9628 203.657 37.9628C204.135 37.9628 204.525 37.5676 204.525 37.0841ZM204.09 37.6472H203.908L203.649 37.1865H203.478V37.6472H203.322V36.5182H203.706C203.902 36.5182 204.061 36.6661 204.061 36.8566C204.061 37.0216 203.959 37.1239 203.82 37.1666L204.09 37.6472ZM203.902 36.8566C203.902 36.7429 203.814 36.6576 203.689 36.6576H203.478V37.0528H203.689C203.814 37.0528 203.902 36.9704 203.902 36.8566Z" fill="white"/>
</g>
<path d="M31.37 82.75V75.65H33.63C34.7433 75.65 35.6367 75.98 36.31 76.64C36.9833 77.2933 37.32 78.15 37.32 79.21C37.32 80.27 36.99 81.1267 36.33 81.78C35.6767 82.4267 34.7867 82.75 33.66 82.75H31.37ZM32.58 81.67H33.59C34.33 81.67 34.9267 81.44 35.38 80.98C35.84 80.5133 36.07 79.9233 36.07 79.21C36.07 78.49 35.8433 77.8967 35.39 77.43C34.9433 76.9633 34.3633 76.73 33.65 76.73H32.58V81.67ZM42.4733 75.74L41.2333 77.19H40.0933L41.2433 75.75L42.4733 75.74ZM43.0533 80.25C43.0533 80.3767 43.0433 80.52 43.0233 80.68H39.4633C39.5366 81.0333 39.6966 81.31 39.9433 81.51C40.1966 81.71 40.5133 81.81 40.8933 81.81C41.4066 81.81 41.8166 81.62 42.1233 81.24L42.9033 81.91C42.4299 82.5233 41.7399 82.83 40.8333 82.83C40.0866 82.83 39.4766 82.6 39.0033 82.14C38.5366 81.68 38.3033 81.07 38.3033 80.31C38.3033 79.5633 38.5299 78.96 38.9833 78.5C39.4433 78.0333 40.0333 77.8 40.7533 77.8C41.4333 77.8 41.9866 78.03 42.4133 78.49C42.8399 78.95 43.0533 79.5367 43.0533 80.25ZM41.5133 79.08C41.3133 78.9 41.0566 78.81 40.7433 78.81C40.4299 78.81 40.1599 78.8967 39.9333 79.07C39.7133 79.2433 39.5633 79.4867 39.4833 79.8H41.9233C41.8499 79.4933 41.7133 79.2533 41.5133 79.08ZM46.8688 82.83C46.1888 82.83 45.6621 82.5867 45.2888 82.1H45.2688V82.75H44.1988V75.39H45.3188V78.45H45.3288C45.7088 78.0167 46.2254 77.8 46.8788 77.8C47.5588 77.8 48.1221 78.04 48.5688 78.52C49.0154 78.9933 49.2388 79.5967 49.2388 80.33C49.2388 81.0767 49.0154 81.68 48.5688 82.14C48.1221 82.6 47.5554 82.83 46.8688 82.83ZM45.6788 81.4C45.9521 81.6733 46.2921 81.81 46.6988 81.81C47.1054 81.81 47.4388 81.6733 47.6988 81.4C47.9654 81.1267 48.0988 80.7733 48.0988 80.34C48.0988 79.88 47.9621 79.51 47.6888 79.23C47.4221 78.95 47.0888 78.81 46.6888 78.81C46.2754 78.81 45.9354 78.9567 45.6688 79.25C45.4021 79.5367 45.2688 79.9 45.2688 80.34C45.2688 80.7733 45.4054 81.1267 45.6788 81.4ZM51.5697 76.93C51.423 77.0767 51.2464 77.15 51.0397 77.15C50.833 77.15 50.6564 77.0767 50.5097 76.93C50.363 76.7833 50.2897 76.6067 50.2897 76.4C50.2897 76.2 50.363 76.0267 50.5097 75.88C50.6564 75.7333 50.833 75.66 51.0397 75.66C51.2464 75.66 51.423 75.7333 51.5697 75.88C51.723 76.0267 51.7997 76.2 51.7997 76.4C51.7997 76.6067 51.723 76.7833 51.5697 76.93ZM50.4797 82.75V77.87H51.5997V82.75H50.4797ZM54.5843 82.83C54.1576 82.83 53.8243 82.6933 53.5843 82.42C53.3443 82.1467 53.2243 81.7433 53.2243 81.21V78.82H52.6243V77.87H53.2243V76.25L54.3443 76.13V77.87H55.7743V78.82H54.3443V81.1C54.3443 81.3467 54.381 81.5233 54.4543 81.63C54.5276 81.73 54.6476 81.78 54.8143 81.78C55.0343 81.78 55.2743 81.71 55.5343 81.57L55.8243 82.54C55.471 82.7333 55.0576 82.83 54.5843 82.83ZM58.8223 82.83C58.0623 82.83 57.4456 82.5933 56.9723 82.12C56.4989 81.6467 56.2623 81.0467 56.2623 80.32C56.2623 79.5933 56.4989 78.9933 56.9723 78.52C57.4456 78.04 58.0623 77.8 58.8223 77.8C59.5756 77.8 60.1889 78.0333 60.6623 78.5C61.1423 78.9667 61.3823 79.5733 61.3823 80.32C61.3823 81.06 61.1423 81.6633 60.6623 82.13C60.1889 82.5967 59.5756 82.83 58.8223 82.83ZM58.8223 81.81C59.2223 81.81 59.5589 81.67 59.8323 81.39C60.1056 81.11 60.2423 80.7533 60.2423 80.32C60.2423 79.8733 60.1056 79.51 59.8323 79.23C59.5656 78.95 59.2289 78.81 58.8223 78.81C58.4023 78.81 58.0589 78.9533 57.7923 79.24C57.5323 79.5267 57.4023 79.8867 57.4023 80.32C57.4023 80.74 57.5356 81.0933 57.8023 81.38C58.0689 81.6667 58.4089 81.81 58.8223 81.81ZM65.8041 84.73L66.6841 82.48L64.6841 77.87H65.8841L67.2241 81.14H67.2441L68.4941 77.87H69.6441L66.9641 84.73H65.8041ZM75.4515 82.83C74.7248 82.83 74.1282 82.5967 73.6615 82.13C73.1948 81.6633 72.9615 81.06 72.9615 80.32C72.9615 79.5733 73.1982 78.9667 73.6715 78.5C74.1448 78.0333 74.7515 77.8 75.4915 77.8C75.8848 77.8 76.2648 77.88 76.6315 78.04C76.9982 78.1933 77.3015 78.4167 77.5415 78.71L76.7815 79.37C76.4615 78.9967 76.0515 78.81 75.5515 78.81C75.1182 78.81 74.7682 78.95 74.5015 79.23C74.2348 79.5033 74.1015 79.8633 74.1015 80.31C74.1015 80.7567 74.2348 81.12 74.5015 81.4C74.7682 81.6733 75.1182 81.81 75.5515 81.81C76.0848 81.81 76.4948 81.62 76.7815 81.24L77.5515 81.92C77.0848 82.5267 76.3848 82.83 75.4515 82.83ZM78.5738 82.75V77.87H79.6938V78.6H79.7138C80.1138 78.0667 80.6171 77.8 81.2238 77.8H81.3638V79.05C81.1904 79.0367 81.0771 79.03 81.0238 79.03C80.6104 79.03 80.2838 79.1633 80.0438 79.43C79.8104 79.69 79.6938 80.0267 79.6938 80.44V82.75H78.5738ZM86.0377 75.74L84.7977 77.19H83.6577L84.8077 75.75L86.0377 75.74ZM86.6177 80.25C86.6177 80.3767 86.6077 80.52 86.5877 80.68H83.0277C83.1011 81.0333 83.2611 81.31 83.5077 81.51C83.7611 81.71 84.0777 81.81 84.4577 81.81C84.9711 81.81 85.3811 81.62 85.6877 81.24L86.4677 81.91C85.9944 82.5233 85.3044 82.83 84.3977 82.83C83.6511 82.83 83.0411 82.6 82.5677 82.14C82.1011 81.68 81.8677 81.07 81.8677 80.31C81.8677 79.5633 82.0944 78.96 82.5477 78.5C83.0077 78.0333 83.5977 77.8 84.3177 77.8C84.9977 77.8 85.5511 78.03 85.9777 78.49C86.4044 78.95 86.6177 79.5367 86.6177 80.25ZM85.0777 79.08C84.8777 78.9 84.6211 78.81 84.3077 78.81C83.9944 78.81 83.7244 78.8967 83.4977 79.07C83.2777 79.2433 83.1277 79.4867 83.0477 79.8H85.4877C85.4144 79.4933 85.2777 79.2533 85.0777 79.08ZM89.8332 82.83C89.1465 82.83 88.5799 82.6 88.1332 82.14C87.6865 81.68 87.4632 81.0767 87.4632 80.33C87.4632 79.5967 87.6865 78.9933 88.1332 78.52C88.5865 78.04 89.1499 77.8 89.8232 77.8C90.4899 77.8 91.0099 78.0233 91.3832 78.47H91.3932V75.39H92.5032V82.75H91.4332V82.09H91.4232C91.0432 82.5833 90.5132 82.83 89.8332 82.83ZM88.9932 81.4C89.2599 81.6733 89.5965 81.81 90.0032 81.81C90.4099 81.81 90.7499 81.6733 91.0232 81.4C91.2965 81.1267 91.4332 80.7733 91.4332 80.34C91.4332 79.9 91.2999 79.5367 91.0332 79.25C90.7665 78.9567 90.4265 78.81 90.0132 78.81C89.6132 78.81 89.2765 78.95 89.0032 79.23C88.7365 79.51 88.6032 79.88 88.6032 80.34C88.6032 80.7733 88.7332 81.1267 88.9932 81.4ZM95.1244 76.93C94.9777 77.0767 94.801 77.15 94.5944 77.15C94.3877 77.15 94.211 77.0767 94.0644 76.93C93.9177 76.7833 93.8444 76.6067 93.8444 76.4C93.8444 76.2 93.9177 76.0267 94.0644 75.88C94.211 75.7333 94.3877 75.66 94.5944 75.66C94.801 75.66 94.9777 75.7333 95.1244 75.88C95.2777 76.0267 95.3544 76.2 95.3544 76.4C95.3544 76.6067 95.2777 76.7833 95.1244 76.93ZM94.0344 82.75V77.87H95.1544V82.75H94.0344ZM98.139 82.83C97.7123 82.83 97.379 82.6933 97.139 82.42C96.899 82.1467 96.779 81.7433 96.779 81.21V78.82H96.179V77.87H96.779V76.25L97.899 76.13V77.87H99.329V78.82H97.899V81.1C97.899 81.3467 97.9357 81.5233 98.009 81.63C98.0823 81.73 98.2023 81.78 98.369 81.78C98.589 81.78 98.829 81.71 99.089 81.57L99.379 82.54C99.0257 82.7333 98.6123 82.83 98.139 82.83ZM102.377 82.83C101.617 82.83 101 82.5933 100.527 82.12C100.054 81.6467 99.817 81.0467 99.817 80.32C99.817 79.5933 100.054 78.9933 100.527 78.52C101 78.04 101.617 77.8 102.377 77.8C103.13 77.8 103.744 78.0333 104.217 78.5C104.697 78.9667 104.937 79.5733 104.937 80.32C104.937 81.06 104.697 81.6633 104.217 82.13C103.744 82.5967 103.13 82.83 102.377 82.83ZM102.377 81.81C102.777 81.81 103.114 81.67 103.387 81.39C103.66 81.11 103.797 80.7533 103.797 80.32C103.797 79.8733 103.66 79.51 103.387 79.23C103.12 78.95 102.784 78.81 102.377 78.81C101.957 78.81 101.614 78.9533 101.347 79.24C101.087 79.5267 100.957 79.8867 100.957 80.32C100.957 80.74 101.09 81.0933 101.357 81.38C101.624 81.6667 101.964 81.81 102.377 81.81Z" fill="#2C2E47"/>
<rect x="120.424" y="73.25" width="6.15156" height="11.0061" fill="#FF5F00"/>
<path d="M120.814 78.7502C120.812 76.6022 121.802 74.5724 123.499 73.2462C120.617 70.9909 116.478 71.3194 113.99 74.0008C111.503 76.6822 111.503 80.8163 113.99 83.4977C116.478 86.1791 120.617 86.5076 123.499 84.2523C121.803 82.9265 120.813 80.8976 120.814 78.7502V78.7502Z" fill="#EB001B"/>
<path d="M134.875 78.751C134.875 81.4307 133.338 83.8752 130.917 85.0463C128.496 86.2173 125.616 85.9093 123.499 84.2531C125.195 82.9261 126.186 80.8975 126.186 78.75C126.186 76.6025 125.195 74.5739 123.499 73.2469C125.616 71.5907 128.496 71.2827 130.917 72.4537C133.338 73.6248 134.875 76.0693 134.875 78.749V78.751Z" fill="#F79E1B"/>
<path fill-rule="evenodd" clip-rule="evenodd" d="M134.255 82.887V83.2469H134.199V82.887H134.063V82.8125H134.381V82.887H134.255ZM134.875 82.8125V83.2469L134.819 83.25V82.9211L134.714 83.2035H134.642L134.537 82.9211V83.2469H134.467V82.8125H134.553L134.666 83.1228L134.778 82.8125H134.875Z" fill="#F79E1B"/>
<mask id="mask0_1141_231110" style="mask-type:alpha" maskUnits="userSpaceOnUse" x="143" y="74" width="25" height="10">
<path fill-rule="evenodd" clip-rule="evenodd" d="M159.235 74.375C157.294 74.3867 155.931 75.5338 155.92 77.1721V77.1721C155.907 78.3912 156.903 79.0705 157.654 79.4756V79.4756C158.424 79.8904 158.683 80.1565 158.68 80.5273V80.5273C158.674 81.0953 158.065 81.3456 157.495 81.3554V81.3554C156.5 81.3726 155.922 81.058 155.462 80.8208V80.8208L155.104 82.6753C155.566 82.9101 156.42 83.1147 157.305 83.125V83.125C159.385 83.125 160.745 81.9892 160.752 80.2292V80.2292C160.76 77.996 157.959 77.8727 157.978 76.8747V76.8747C157.985 76.5714 158.246 76.2487 158.818 76.1659V76.1659C159.101 76.1252 159.884 76.0935 160.77 76.5446V76.5446L161.117 74.75C160.647 74.5612 160.043 74.3795 159.294 74.375V74.375H159.235ZM164.462 74.5299C164.082 74.5299 163.762 74.7742 163.619 75.1505V75.1505L160.649 82.9929H162.727L163.14 81.7284H165.68L165.919 82.9929H167.75L166.152 74.5299H164.462ZM164.752 76.8163L165.352 79.994H163.71L164.752 76.8163ZM153.402 74.5299L151.764 82.9929H153.744L155.381 74.5299H153.402ZM150.473 74.5297L148.412 80.2897L147.578 75.3924C147.481 74.8455 147.094 74.5297 146.665 74.5297V74.5297H143.297L143.25 74.7751C143.941 74.9415 144.727 75.2095 145.203 75.4953V75.4953C145.494 75.6702 145.578 75.8229 145.673 76.2387V76.2387L147.252 82.9927H149.344L152.552 74.5297H150.473Z" fill="white"/>
</mask>
<g mask="url(#mask0_1141_231110)">
<path fill-rule="evenodd" clip-rule="evenodd" d="M159.294 74.375L159.361 74.3759C160.034 74.3896 160.585 74.5448 161.028 74.7147L161.117 74.75L160.77 76.5446L160.726 76.5228C159.887 76.1088 159.147 76.1243 158.847 76.162L158.818 76.1659L158.783 76.1713C158.247 76.26 157.995 76.5645 157.979 76.8561L157.978 76.8747L157.978 76.9044C158.014 77.8657 160.706 78.0153 160.751 80.1635L160.752 80.2292L160.751 80.2819C160.718 81.9945 159.391 83.1027 157.367 83.1247L157.305 83.125L157.249 83.1241C156.402 83.1064 155.592 82.9137 155.134 82.6902L155.104 82.6753L155.462 80.8208L155.623 80.9035C156.049 81.1202 156.589 81.3604 157.44 81.356L157.495 81.3554L157.523 81.3547C158.075 81.3376 158.655 81.0943 158.68 80.555L158.68 80.5273L158.68 80.5082C158.674 80.16 158.429 79.9019 157.732 79.518L157.571 79.4304C156.841 79.0255 155.931 78.3636 155.92 77.2155L155.92 77.1721L155.921 77.1231C155.958 75.5271 157.287 74.4092 159.178 74.3757L159.235 74.375H159.294ZM155.381 74.5299L153.744 82.9929H151.764L153.402 74.5299H155.381ZM146.665 74.5297L146.691 74.5301C147.101 74.5422 147.468 74.8437 147.572 75.3598L147.578 75.3924L148.412 80.2897L150.473 74.5297H152.552L149.344 82.9927H147.252L145.665 76.2037C145.575 75.8259 145.491 75.6745 145.228 75.5107L145.203 75.4953L145.159 75.4693C144.695 75.202 143.968 74.9525 143.313 74.7905L143.25 74.7751L143.297 74.5297H146.665ZM166.152 74.5299L167.75 82.9929H165.919L165.68 81.7284H163.14L162.727 82.9929H160.649L163.619 75.1505L163.631 75.1218C163.774 74.7713 164.075 74.5422 164.433 74.5304L164.462 74.5299H166.152Z" fill="url(#paint0_linear_1141_231110)"/>
<path fill-rule="evenodd" clip-rule="evenodd" d="M164.595 76.8516L165.162 80.0853H163.609L164.595 76.8516Z" fill="url(#paint1_linear_1141_231110)"/>
</g>
<path d="M194.5 85.75H187.542H180.5V78.6805V71.75H187.448H194.5V78.7495V85.75Z" fill="white"/>
<path d="M194.5 85.75V83.5315H192.811L191.942 82.5707L191.067 83.5315H185.499V79.0501H183.703L185.931 74.0051H188.081L188.848 75.7336V74.0051H191.51L191.972 75.3076L192.437 74.0051H194.5V71.75H180.5V85.75H194.5ZM193.095 82.9706H194.5L192.642 81.0005L194.5 79.0524H193.118L191.97 80.3055L190.834 79.0515H189.429L191.276 81.0106L189.429 82.9697H190.794L191.947 81.7046L193.094 82.9697L193.095 82.9706ZM193.424 81.0033L194.5 82.147V79.8668L193.424 81.0019V81.0033ZM187.162 82.0638V81.4539H189.376V80.5695H187.162V79.9592H189.429V79.0524H186.094V82.9706H189.429V82.0638H187.162ZM193.442 78.4842H194.5V74.566H192.853L191.974 77.0064L191.102 74.566H189.429V78.4842H190.487V75.7414L191.493 78.4865H192.434L193.44 75.7382V78.4865L193.442 78.4842ZM188.227 78.4842H189.43L187.7 74.566H186.323L184.593 78.4842H185.768L186.093 77.7005H187.895L188.226 78.4842H188.227ZM187.527 76.8216H186.462L186.994 75.5405L187.526 76.8216H187.527Z" fill="#0079C1"/>
<path d="M215.253 77.1934V74.8125H207.25V82.6875H215.253V80.3781C215.122 80.3045 215.008 80.2195 214.912 80.1229L214.907 80.1174C214.773 79.9763 214.713 79.7968 214.739 79.6117C214.762 79.4394 214.851 79.2917 214.996 79.1839C215.085 79.1162 215.172 79.0775 215.253 79.0565V78.8826C215.252 78.882 215.251 78.881 215.25 78.8804C214.992 78.6595 214.855 78.3724 214.855 78.0499C214.855 77.7664 214.942 77.5232 215.115 77.3274C215.158 77.2793 215.204 77.2349 215.253 77.1934ZM211.092 78.9825C211.092 79.5964 210.619 80.0864 209.844 80.0864C209.25 80.0864 208.637 79.7548 208.637 78.8883V76.6109L209.301 76.4669V78.7942C209.301 79.0912 209.356 79.4576 209.874 79.4576C210.337 79.4576 210.428 79.1456 210.428 78.7397V76.6109L211.092 76.4669V78.9825ZM212.767 80.086C212.501 80.086 212.253 80.0042 212.047 79.8638V80.7542L211.408 80.8984V77.419L212.049 77.2666V77.6367C212.255 77.4952 212.499 77.4156 212.767 77.4156C213.487 77.4156 214.07 78.0134 214.07 78.7509C214.07 79.4882 213.487 80.086 212.767 80.086Z" fill="#F4921F"/>
<path d="M212.726 77.9844C212.298 77.9844 211.986 78.336 211.986 78.7469C211.986 79.1579 212.298 79.5093 212.726 79.5093C213.154 79.5093 213.466 79.1576 213.466 78.7469C213.466 78.336 213.154 77.9844 212.726 77.9844Z" fill="#F4921F"/>
<path d="M217.17 78.7013C217.008 78.6151 216.788 78.5463 216.508 78.495C216.303 78.4583 216.147 78.418 216.041 78.374C215.935 78.33 215.862 78.2796 215.823 78.2227C215.784 78.1659 215.765 78.1026 215.765 78.0328C215.765 77.9191 215.822 77.8302 215.938 77.7662C216.053 77.7021 216.201 77.67 216.38 77.67C216.529 77.67 216.659 77.6891 216.771 77.7277C216.883 77.7662 216.985 77.8332 217.078 77.9284C217.13 77.9761 217.194 78.0064 217.268 78.0191C217.343 78.0319 217.406 78.0201 217.459 77.9834C217.518 77.943 217.55 77.8936 217.554 77.8348C217.557 77.7762 217.537 77.7192 217.492 77.6643C217.38 77.5251 217.23 77.4159 217.042 77.337C216.854 77.2582 216.637 77.2188 216.391 77.2188C216.197 77.2188 216.013 77.2491 215.84 77.3095C215.667 77.3699 215.526 77.4617 215.418 77.5845C215.31 77.7074 215.256 77.8624 215.256 78.0492C215.256 78.2582 215.342 78.4362 215.513 78.5828C215.684 78.7295 215.958 78.8376 216.335 78.9073C216.626 78.9588 216.829 79.0256 216.944 79.1081C217.06 79.1906 217.118 79.2906 217.118 79.4078C217.114 79.5251 217.053 79.6222 216.936 79.6993C216.819 79.7763 216.643 79.8148 216.408 79.8148C216.232 79.8148 216.074 79.7854 215.932 79.7268C215.791 79.6683 215.683 79.5985 215.608 79.5178C215.563 79.4666 215.507 79.4372 215.44 79.4299C215.373 79.4226 215.306 79.4445 215.239 79.496C215.179 79.54 215.145 79.5958 215.136 79.6637C215.126 79.7316 215.148 79.7929 215.2 79.8481C215.327 79.9764 215.5 80.0792 215.72 80.156C215.94 80.233 216.173 80.2715 216.419 80.2715C216.676 80.2715 216.893 80.233 217.07 80.156C217.247 80.0789 217.384 79.9737 217.479 79.8396C217.574 79.7059 217.621 79.5527 217.621 79.3804C217.621 79.2373 217.586 79.1101 217.517 78.9982C217.448 78.8866 217.333 78.7876 217.17 78.7013Z" fill="#485756"/>
<path d="M218.682 77.2422C218.604 77.2422 218.541 77.2661 218.492 77.3137C218.444 77.3614 218.419 77.4238 218.419 77.5009V79.9925C218.419 80.0696 218.444 80.132 218.492 80.1796C218.541 80.2273 218.604 80.2512 218.682 80.2512C218.761 80.2512 218.824 80.2275 218.873 80.1796C218.921 80.132 218.945 80.0696 218.945 79.9925V77.5009C218.945 77.4238 218.921 77.3616 218.873 77.3137C218.824 77.2661 218.76 77.2422 218.682 77.2422Z" fill="#485756"/>
<path d="M219.241 75.7031C219.171 75.7031 219.109 75.7289 219.057 75.7802L218.481 76.3467C218.44 76.3907 218.42 76.4477 218.42 76.5172C218.42 76.5906 218.445 76.6519 218.495 76.7016C218.546 76.751 218.608 76.7759 218.683 76.7759C218.757 76.7759 218.817 76.7522 218.861 76.7043L219.432 76.1432C219.462 76.1213 219.481 76.0947 219.49 76.0634C219.5 76.0322 219.504 76.0003 219.504 75.9673C219.504 75.8939 219.48 75.8317 219.432 75.7802C219.383 75.7287 219.32 75.7031 219.241 75.7031Z" fill="#485756"/>
<path d="M223.164 77.2759C223.097 77.2468 223.032 77.2422 222.968 77.2623C222.905 77.2825 222.858 77.322 222.828 77.3805L221.833 79.5155L220.827 77.3805C220.797 77.322 220.752 77.2825 220.693 77.2623C220.633 77.2422 220.574 77.2468 220.514 77.2759C220.447 77.3053 220.402 77.3484 220.38 77.4052C220.358 77.4621 220.359 77.5198 220.386 77.5784L221.593 80.0812C221.649 80.1913 221.731 80.2462 221.839 80.2462C221.947 80.2462 222.027 80.1913 222.079 80.0812L223.276 77.5729C223.306 77.518 223.309 77.461 223.287 77.4024C223.264 77.3438 223.223 77.3017 223.164 77.2759Z" fill="#485756"/>
<path d="M225.936 77.4195C225.705 77.2858 225.443 77.2188 225.148 77.2188C224.858 77.2188 224.596 77.2858 224.363 77.4195C224.13 77.5535 223.946 77.735 223.81 77.964C223.673 78.1933 223.606 78.4544 223.606 78.7478C223.606 79.0374 223.669 79.2977 223.796 79.5288C223.922 79.7599 224.096 79.9413 224.316 80.0732C224.535 80.2052 224.783 80.2713 225.059 80.2713C225.335 80.2713 225.58 80.2063 225.794 80.076C225.939 79.9882 226.062 79.8788 226.166 79.7487V79.9962C226.166 80.0696 226.191 80.1309 226.241 80.1806C226.292 80.23 226.354 80.2549 226.429 80.2549C226.507 80.2549 226.57 80.23 226.619 80.1806C226.667 80.1311 226.691 80.0698 226.691 79.9962V78.7475C226.691 78.4579 226.623 78.1974 226.487 77.9665C226.351 77.7359 226.167 77.5533 225.936 77.4195ZM226.051 79.2924C225.96 79.4538 225.837 79.5812 225.682 79.6746C225.527 79.7681 225.35 79.8148 225.148 79.8148C224.954 79.8148 224.778 79.7681 224.62 79.6746C224.462 79.5812 224.337 79.4538 224.245 79.2924C224.154 79.1311 224.109 78.9497 224.109 78.748C224.109 78.5426 224.154 78.3594 224.245 78.1978C224.337 78.0365 224.462 77.9091 224.62 77.8156C224.778 77.7222 224.954 77.6755 225.148 77.6755C225.35 77.6755 225.527 77.7222 225.682 77.8156C225.837 77.9091 225.96 78.0365 226.051 78.1978C226.142 78.3592 226.188 78.5426 226.188 78.748C226.188 78.9497 226.142 79.1311 226.051 79.2924Z" fill="#485756"/>
<path d="M228.385 79.7432H228.245C228.156 79.7432 228.083 79.6974 228.027 79.6057C227.971 79.5141 227.943 79.3968 227.943 79.2536V76.2063C227.943 76.1293 227.92 76.068 227.873 76.022C227.827 75.9761 227.764 75.9531 227.686 75.9531C227.608 75.9531 227.545 75.9761 227.499 76.022C227.452 76.0678 227.429 76.1293 227.429 76.2063V79.2536C227.429 79.448 227.463 79.6194 227.532 79.768C227.601 79.9166 227.697 80.034 227.82 80.1201C227.943 80.2063 228.085 80.2493 228.245 80.2493H228.279C228.376 80.2493 228.456 80.2265 228.519 80.1805C228.582 80.1347 228.614 80.0732 228.614 79.9961C228.614 79.9191 228.594 79.8578 228.553 79.8118C228.512 79.7662 228.456 79.7432 228.385 79.7432Z" fill="#485756"/>
<path d="M231.683 78.8608C231.728 78.8186 231.75 78.7646 231.75 78.6985C231.75 78.4089 231.694 78.1532 231.582 77.9312C231.47 77.7094 231.309 77.5351 231.099 77.4086C230.888 77.2821 230.639 77.2188 230.352 77.2188C230.062 77.2188 229.804 77.2839 229.578 77.4141C229.353 77.5442 229.177 77.724 229.05 77.9531C228.923 78.1823 228.86 78.4472 228.86 78.748C228.86 79.0449 228.927 79.3082 229.061 79.5372C229.195 79.7665 229.382 79.9461 229.62 80.0762C229.858 80.2063 230.131 80.2715 230.436 80.2715C230.608 80.2715 230.788 80.2394 230.979 80.1753C231.169 80.1113 231.325 80.0297 231.448 79.9306C231.508 79.8866 231.536 79.8344 231.532 79.7738C231.528 79.7134 231.496 79.6573 231.437 79.606C231.392 79.5694 231.34 79.552 231.28 79.5539C231.221 79.5557 231.165 79.575 231.113 79.6115C231.034 79.6703 230.933 79.7216 230.808 79.7656C230.683 79.8096 230.559 79.8317 230.436 79.8317C230.22 79.8317 230.029 79.7849 229.863 79.6915C229.697 79.5981 229.567 79.4698 229.472 79.3066C229.404 79.1908 229.361 79.0632 229.342 78.9244H231.51C231.58 78.9242 231.638 78.9032 231.683 78.8608ZM229.802 77.7992C229.956 77.7058 230.14 77.6591 230.352 77.6591C230.546 77.6591 230.712 77.703 230.85 77.791C230.988 77.879 231.094 77.9991 231.168 78.1513C231.222 78.2605 231.256 78.3808 231.271 78.5116H229.348C229.367 78.3954 229.401 78.2872 229.45 78.1871C229.53 78.0221 229.647 77.8927 229.802 77.7992Z" fill="#485756"/>
<path fill-rule="evenodd" clip-rule="evenodd" d="M245.641 83.3299L246.148 82.2773L246.664 83.3299H245.641ZM245.756 81.6133L244.297 84.4547H245.1L245.41 83.8106H246.909L247.235 84.4547H248.058L246.559 81.6133H245.756ZM249.786 82.8172H249.227V82.0938H249.816C250.122 82.0938 250.306 82.0973 250.368 82.1039C250.49 82.1192 250.585 82.1565 250.652 82.2154C250.719 82.2746 250.753 82.352 250.753 82.4477C250.753 82.5332 250.727 82.6049 250.676 82.6618C250.625 82.7187 250.555 82.7587 250.465 82.7822C250.374 82.8056 250.148 82.8172 249.786 82.8172V82.8172ZM250.95 83.4405C250.844 83.354 250.709 83.2746 250.546 83.2023C250.875 83.1661 251.121 83.0789 251.287 82.9395C251.452 82.8007 251.534 82.6241 251.534 82.4109C251.534 82.2425 251.479 82.0932 251.37 81.9627C251.261 81.8322 251.116 81.7411 250.934 81.6899C250.753 81.6387 250.462 81.6133 250.061 81.6133H248.469V84.4547H249.226V83.2705H249.38C249.554 83.2705 249.68 83.2808 249.761 83.3021C249.841 83.3232 249.917 83.3624 249.989 83.4197C250.061 83.4766 250.194 83.6152 250.389 83.8345L250.932 84.4547H251.837L251.379 83.9014C251.199 83.6806 251.056 83.5267 250.95 83.4405V83.4405ZM256.789 83.2027H258.667V82.7219H256.789V82.0938H258.806V81.6133H256.031V84.4547H258.88V83.9737H256.789V83.2027ZM259.258 81.6133V82.0938H260.371V84.4547H261.128V82.0938H262.233V81.6133H259.258ZM242.983 83.8684C242.839 83.9656 242.666 84.0141 242.466 84.0141C242.193 84.0141 241.972 83.9376 241.803 83.7853C241.632 83.6328 241.548 83.3766 241.548 83.0173C241.548 82.6783 241.634 82.4332 241.806 82.282C241.978 82.1307 242.203 82.0549 242.48 82.0549C242.679 82.0549 242.85 82.0977 242.99 82.1832C243.129 82.2685 243.222 82.3848 243.266 82.5317L244.015 82.3971C243.93 82.1693 243.802 81.9953 243.632 81.8738C243.347 81.6691 242.974 81.5664 242.517 81.5664C241.993 81.5664 241.57 81.6972 241.248 81.9584C240.926 82.2201 240.766 82.5872 240.766 83.0595C240.766 83.5067 240.926 83.8587 241.246 84.1164C241.566 84.3739 241.975 84.5032 242.472 84.5032C242.874 84.5032 243.205 84.427 243.467 84.2753C243.728 84.1246 243.915 83.893 244.027 83.5813L243.295 83.4102C243.232 83.6183 243.128 83.7713 242.983 83.8684V83.8684ZM254.525 83.5189L252.983 81.6133H252.25V84.4547H252.95V82.5902L254.469 84.4547H255.225V81.6133H254.525V83.5189ZM251.441 74.3228C255.144 74.3228 258.212 75.697 258.825 77.5023C258.898 77.2871 258.944 77.067 258.944 76.8411C258.944 74.7197 255.585 73 251.441 73C247.297 73 243.938 74.7197 243.938 76.8411C243.938 77.067 243.983 77.2871 244.056 77.5023C244.669 75.697 247.738 74.3228 251.441 74.3228V74.3228ZM251.441 76.6075C255.144 76.6075 258.212 77.9819 258.825 79.7872C258.898 79.5726 258.944 79.3521 258.944 79.1262C258.944 77.0048 255.585 75.2852 251.441 75.2852C247.297 75.2852 243.938 77.0048 243.938 79.1262C243.938 79.3521 243.983 79.5726 244.056 79.7872C244.669 77.9819 247.738 76.6075 251.441 76.6075V76.6075Z" fill="#EC1C24"/>
<defs>
<filter id="filter0_d_1141_231110" x="0" y="0" width="296" height="72" filterUnits="userSpaceOnUse" color-interpolation-filters="sRGB">
<feFlood flood-opacity="0" result="BackgroundImageFix"/>
<feColorMatrix in="SourceAlpha" type="matrix" values="0 0 0 0 0 0 0 0 0 0 0 0 0 0 0 0 0 0 127 0" result="hardAlpha"/>
<feOffset dy="6"/>
<feGaussianBlur stdDeviation="6"/>
<feColorMatrix type="matrix" values="0 0 0 0 0.988235 0 0 0 0 0.298039 0 0 0 0 0.00784314 0 0 0 0.2 0"/>
<feBlend mode="normal" in2="BackgroundImageFix" result="effect1_dropShadow_1141_231110"/>
<feBlend mode="normal" in="SourceGraphic" in2="effect1_dropShadow_1141_231110" result="shape"/>
</filter>
<linearGradient id="paint0_linear_1141_231110" x1="143.25" y1="83.125" x2="167.75" y2="83.125" gradientUnits="userSpaceOnUse">
<stop stop-color="#231F5D"/>
<stop offset="1" stop-color="#024DA1"/>
</linearGradient>
<linearGradient id="paint1_linear_1141_231110" x1="163.609" y1="80.0852" x2="165.162" y2="80.0852" gradientUnits="userSpaceOnUse">
<stop stop-color="#231F5D"/>
<stop offset="1" stop-color="#024DA1"/>
</linearGradient>
</defs>
</svg>
