<svg width="272" height="48" viewBox="0 0 272 48" fill="none" xmlns="http://www.w3.org/2000/svg">
<rect width="272" height="48.001" rx="8" fill="#F53B02"/>
<rect x="58" width="156" height="48.001" rx="8" fill="#F53B02"/>
<path d="M78.732 30V18.64H82.94C84.2627 18.64 85.2493 18.9867 85.9 19.68C86.5613 20.3627 86.892 21.2747 86.892 22.416C86.892 23.632 86.5187 24.5547 85.772 25.184C85.0253 25.8027 84.0067 26.112 82.716 26.112H80.956V30H78.732ZM80.956 24.128H82.476C83.1587 24.128 83.676 23.9733 84.028 23.664C84.38 23.344 84.556 22.9173 84.556 22.384C84.556 21.84 84.3853 21.4133 84.044 21.104C83.7133 20.7947 83.228 20.64 82.588 20.64H80.956V24.128ZM91.6794 30.144C90.5914 30.144 89.6954 29.7707 88.9914 29.024C88.298 28.2773 87.9514 27.3067 87.9514 26.112C87.9514 24.9387 88.298 23.9733 88.9914 23.216C89.6954 22.448 90.5754 22.064 91.6314 22.064C92.602 22.064 93.37 22.4053 93.9354 23.088L93.9674 23.072V22.176H96.0634V30H94.0634V29.072L94.0314 29.056C93.466 29.7813 92.682 30.144 91.6794 30.144ZM92.0794 28.256C92.634 28.256 93.1034 28.0587 93.4874 27.664C93.8714 27.2693 94.0634 26.7573 94.0634 26.128C94.0634 25.4987 93.8714 24.976 93.4874 24.56C93.114 24.144 92.6447 23.936 92.0794 23.936C91.5034 23.936 91.0234 24.1387 90.6394 24.544C90.266 24.9387 90.0794 25.4667 90.0794 26.128C90.0794 26.7573 90.266 27.2693 90.6394 27.664C91.0127 28.0587 91.4927 28.256 92.0794 28.256ZM101.592 33.296C100.376 33.296 99.309 33.0347 98.3916 32.512L98.8876 30.736C99.7623 31.2267 100.61 31.472 101.432 31.472C102.125 31.472 102.664 31.3067 103.048 30.976C103.432 30.6453 103.624 30.2347 103.624 29.744V28.96H103.592C103.016 29.5573 102.258 29.856 101.32 29.856C100.242 29.856 99.3516 29.4987 98.6476 28.784C97.9436 28.0693 97.5916 27.1467 97.5916 26.016C97.5916 24.864 97.933 23.92 98.6156 23.184C99.2983 22.4373 100.162 22.064 101.208 22.064C102.146 22.064 102.93 22.3733 103.56 22.992H103.592V22.176H105.688V29.104C105.688 31.8987 104.322 33.296 101.592 33.296ZM100.28 27.424C100.653 27.7867 101.128 27.968 101.704 27.968C102.28 27.968 102.749 27.7813 103.112 27.408C103.485 27.024 103.672 26.5333 103.672 25.936C103.672 25.3493 103.485 24.8747 103.112 24.512C102.738 24.1387 102.269 23.952 101.704 23.952C101.117 23.952 100.637 24.1387 100.264 24.512C99.901 24.8853 99.7196 25.3653 99.7196 25.952C99.7196 26.56 99.9063 27.0507 100.28 27.424ZM110.961 30.144C109.873 30.144 108.977 29.7707 108.273 29.024C107.579 28.2773 107.233 27.3067 107.233 26.112C107.233 24.9387 107.579 23.9733 108.273 23.216C108.977 22.448 109.857 22.064 110.913 22.064C111.883 22.064 112.651 22.4053 113.217 23.088L113.249 23.072V22.176H115.345V30H113.345V29.072L113.313 29.056C112.747 29.7813 111.963 30.144 110.961 30.144ZM111.361 28.256C111.915 28.256 112.385 28.0587 112.769 27.664C113.153 27.2693 113.345 26.7573 113.345 26.128C113.345 25.4987 113.153 24.976 112.769 24.56C112.395 24.144 111.926 23.936 111.361 23.936C110.785 23.936 110.305 24.1387 109.921 24.544C109.547 24.9387 109.361 25.4667 109.361 26.128C109.361 26.7573 109.547 27.2693 109.921 27.664C110.294 28.0587 110.774 28.256 111.361 28.256ZM117.337 30V22.176H119.433V23.312H119.465C120.084 22.48 120.868 22.064 121.817 22.064H121.977V24.352C121.828 24.3413 121.641 24.336 121.417 24.336C120.788 24.336 120.297 24.528 119.945 24.912C119.604 25.2853 119.433 25.776 119.433 26.384V30H117.337ZM130.999 30.144C129.826 30.144 128.861 29.7707 128.103 29.024C127.346 28.2773 126.967 27.3067 126.967 26.112C126.967 24.9067 127.346 23.9307 128.103 23.184C128.861 22.4373 129.847 22.064 131.063 22.064C131.703 22.064 132.317 22.1867 132.903 22.432C133.49 22.6667 133.981 23.0133 134.375 23.472L132.999 24.768C132.551 24.2133 131.954 23.936 131.207 23.936C130.578 23.936 130.066 24.1387 129.671 24.544C129.287 24.9387 129.095 25.456 129.095 26.096C129.095 26.7467 129.287 27.2693 129.671 27.664C130.066 28.0587 130.578 28.256 131.207 28.256C131.975 28.256 132.589 27.9733 133.047 27.408L134.407 28.72C133.639 29.6693 132.503 30.144 130.999 30.144ZM139.581 30.144C138.343 30.144 137.341 29.7653 136.573 29.008C135.805 28.2507 135.421 27.28 135.421 26.096C135.421 24.9227 135.805 23.9573 136.573 23.2C137.341 22.4427 138.343 22.064 139.581 22.064C140.797 22.064 141.789 22.4373 142.557 23.184C143.335 23.9307 143.725 24.9013 143.725 26.096C143.725 27.2907 143.335 28.2667 142.557 29.024C141.789 29.7707 140.797 30.144 139.581 30.144ZM139.581 28.256C140.146 28.256 140.621 28.0533 141.005 27.648C141.399 27.2427 141.597 26.7253 141.597 26.096C141.597 25.456 141.405 24.9387 141.021 24.544C140.637 24.1387 140.157 23.936 139.581 23.936C138.983 23.936 138.493 24.144 138.109 24.56C137.735 24.9653 137.549 25.4773 137.549 26.096C137.549 26.7147 137.735 27.232 138.109 27.648C138.493 28.0533 138.983 28.256 139.581 28.256ZM145.368 30V22.176H147.464V23.184H147.496C148.125 22.4373 148.957 22.064 149.992 22.064C151.88 22.064 152.824 23.1627 152.824 25.36V30H150.728V25.888C150.728 25.1733 150.605 24.672 150.36 24.384C150.115 24.0853 149.736 23.936 149.224 23.936C148.68 23.936 148.248 24.1227 147.928 24.496C147.619 24.8587 147.464 25.3867 147.464 26.08V30H145.368Z" fill="white"/>
<path fill-rule="evenodd" clip-rule="evenodd" d="M192.749 15.873C192.739 13.5942 190.888 11.75 188.607 11.75C188.04 11.75 187.485 11.8577 187.008 12.07L171.914 18.48C169.763 19.3898 168.25 21.5216 168.25 24.0002V32.1075C168.25 34.395 170.104 36.25 172.393 36.25C172.973 36.25 173.525 36.1299 174.027 35.9143L189.057 29.5327C191.223 28.629 192.75 26.4901 192.75 24.0002L192.749 15.873Z" fill="white"/>
<path fill-rule="evenodd" clip-rule="evenodd" d="M178.863 27.2635C178.687 27.2635 178.544 27.1055 178.544 26.9106V19.4548C178.544 19.2598 178.687 19.1016 178.863 19.1016C179.039 19.1016 179.182 19.2598 179.182 19.4548V26.9106C179.182 27.1055 179.039 27.2635 178.863 27.2635Z" fill="#F53B02" stroke="#F53B02" stroke-width="0.3"/>
<path fill-rule="evenodd" clip-rule="evenodd" d="M181.633 26.929V21.0995C181.633 20.9022 181.49 20.7422 181.313 20.7422C181.138 20.7422 180.995 20.9022 180.995 21.0995V26.929C180.995 27.1264 181.138 27.2865 181.313 27.2865C181.49 27.2865 181.633 27.1264 181.633 26.929Z" fill="#F53B02" stroke="#F53B02" stroke-width="0.3"/>
<path fill-rule="evenodd" clip-rule="evenodd" d="M181.633 19.4294V19.4111C181.633 19.2402 181.49 19.1016 181.313 19.1016C181.138 19.1016 180.995 19.2402 180.995 19.4111V19.4294C180.995 19.6004 181.138 19.7388 181.313 19.7388C181.49 19.7388 181.633 19.6004 181.633 19.4294Z" fill="#F53B02" stroke="#F53B02" stroke-width="0.3"/>
<path fill-rule="evenodd" clip-rule="evenodd" d="M176.649 26.476C176.79 26.3365 176.79 26.1101 176.649 25.9707C176.509 25.8309 176.281 25.8309 176.141 25.9707C175.101 27.0006 173.411 27.0006 172.372 25.9707C171.333 24.9393 171.333 23.2622 172.372 22.2316C172.875 21.7324 173.545 21.4574 174.256 21.4574C174.968 21.4574 175.637 21.7324 176.14 22.2316C176.281 22.3715 176.509 22.3715 176.649 22.2316C176.79 22.0917 176.79 21.8657 176.649 21.7259C176.01 21.0915 175.16 20.7422 174.256 20.7422C173.352 20.7422 172.502 21.0915 171.862 21.7259C170.543 23.0353 170.543 25.1659 171.862 26.476C172.522 27.1309 173.389 27.458 174.256 27.458C175.123 27.458 175.989 27.1309 176.649 26.476Z" fill="#F53B02" stroke="#F53B02" stroke-width="0.3"/>
<path fill-rule="evenodd" clip-rule="evenodd" d="M184.161 28.719V24.0932C184.161 22.6389 185.347 21.4555 186.804 21.4555C188.262 21.4555 189.448 22.6389 189.448 24.0932C189.448 25.5478 188.262 26.7307 186.804 26.7307C185.964 26.7307 185.395 26.4103 185.391 26.4084C185.221 26.3088 185.002 26.3652 184.902 26.5353C184.802 26.7056 184.859 26.9239 185.029 27.024C185.059 27.0411 185.76 27.4442 186.804 27.4442C188.656 27.4442 190.162 25.9409 190.162 24.0932C190.162 22.2454 188.656 20.7422 186.804 20.7422C184.953 20.7422 183.446 22.2454 183.446 24.0932V28.719C183.446 28.9157 183.607 29.0757 183.804 29.0757C184.001 29.0757 184.161 28.9157 184.161 28.719Z" fill="#F53B02" stroke="#F53B02" stroke-width="0.3"/>
<path fill-rule="evenodd" clip-rule="evenodd" d="M192.687 31.0841C192.687 31.6529 192.226 32.1136 191.657 32.1136C191.089 32.1136 190.628 31.6529 190.628 31.0841C190.628 30.5154 191.089 30.0547 191.657 30.0547C192.226 30.0547 192.687 30.5154 192.687 31.0841ZM192.525 31.0841C192.525 30.6007 192.135 30.2054 191.657 30.2054C191.18 30.2054 190.793 30.6007 190.793 31.0841C190.793 31.5676 191.18 31.9628 191.657 31.9628C192.135 31.9628 192.525 31.5676 192.525 31.0841ZM192.09 31.6472H191.908L191.649 31.1865H191.478V31.6472H191.322V30.5182H191.706C191.902 30.5182 192.061 30.6661 192.061 30.8566C192.061 31.0216 191.959 31.1239 191.82 31.1666L192.09 31.6472ZM191.902 30.8566C191.902 30.7429 191.814 30.6576 191.689 30.6576H191.478V31.0528H191.689C191.814 31.0528 191.902 30.9704 191.902 30.8566Z" fill="white"/>
</svg>
